<svg width="593" height="641" viewBox="0 0 593 641" fill="none" xmlns="http://www.w3.org/2000/svg">
<rect width="592" height="640" transform="translate(1 0.5)" fill="white"/>
<path d="M592 487.642H0V487.938H592V487.642Z" fill="#EBEBEB"/>
<path d="M532.681 506.691H493.467V506.987H532.681V506.691Z" fill="#EBEBEB"/>
<path d="M356.904 506.846H346.615V507.142H356.904V506.846Z" fill="#EBEBEB"/>
<path d="M492.272 495.704H419.527V496H492.272V495.704Z" fill="#EBEBEB"/>
<path d="M266.566 502.69H251.541V502.986H266.566V502.69Z" fill="#EBEBEB"/>
<path d="M241.003 502.69H197.396V502.986H241.003V502.69Z" fill="#EBEBEB"/>
<path d="M92.2224 497.693H62.1133V497.989H92.2224V497.693Z" fill="#EBEBEB"/>
<path d="M187.994 497.693H99.3242V497.989H187.994V497.693Z" fill="#EBEBEB"/>
<path d="M280.608 434.835H51.989C50.1981 434.832 48.4815 434.118 47.2162 432.851C45.9509 431.583 45.2402 429.866 45.2402 428.075V106.701C45.2558 104.921 45.9734 103.218 47.237 101.963C48.5006 100.709 50.2083 100.003 51.989 100H280.608C282.401 100 284.12 100.712 285.388 101.98C286.656 103.248 287.368 104.968 287.368 106.761V428.075C287.368 429.868 286.656 431.587 285.388 432.855C284.12 434.123 282.401 434.835 280.608 434.835ZM51.989 100.237C50.2766 100.24 48.6353 100.922 47.4255 102.134C46.2157 103.346 45.5362 104.989 45.5362 106.701V428.075C45.5362 429.787 46.2157 431.43 47.4255 432.642C48.6353 433.854 50.2766 434.536 51.989 434.539H280.608C282.321 434.536 283.964 433.854 285.175 432.642C286.387 431.431 287.069 429.788 287.072 428.075V106.701C287.069 104.988 286.387 103.345 285.175 102.134C283.964 100.922 282.321 100.24 280.608 100.237H51.989Z" fill="#EBEBEB"/>
<path d="M536.719 434.835H308.089C306.297 434.832 304.579 434.119 303.312 432.852C302.045 431.584 301.331 429.867 301.328 428.075V106.701C301.347 104.92 302.067 103.217 303.332 101.963C304.598 100.708 306.307 100.003 308.089 100H536.719C538.498 100.006 540.203 100.713 541.464 101.967C542.725 103.222 543.441 104.923 543.456 106.701V428.075C543.456 429.863 542.747 431.579 541.484 432.847C540.222 434.114 538.508 434.829 536.719 434.835ZM308.089 100.237C306.375 100.24 304.733 100.922 303.521 102.134C302.309 103.345 301.627 104.988 301.624 106.701V428.075C301.627 429.788 302.309 431.431 303.521 432.642C304.733 433.854 306.375 434.536 308.089 434.539H536.719C538.433 434.536 540.075 433.854 541.287 432.642C542.499 431.431 543.181 429.788 543.184 428.075V106.701C543.181 104.988 542.499 103.345 541.287 102.134C540.075 100.922 538.433 100.24 536.719 100.237H308.089Z" fill="#EBEBEB"/>
<path d="M397.16 394.271C394.496 390.222 396.391 383.272 401.115 380.169C413.878 371.763 430.442 365.441 433.616 370.259C436.789 375.078 424.345 388.019 411.581 396.378C406.857 399.552 399.824 398.368 397.16 394.271Z" fill="#E0E0E0"/>
<path d="M378.038 370.888C359.023 370.888 340.008 382.799 340.008 395.681C340.008 430.502 355.4 470.367 378.038 470.367C400.676 470.367 416.068 430.502 416.068 395.681C416.068 382.799 397.053 370.888 378.038 370.888Z" fill="#E6E6E6"/>
<path d="M378.04 370.888C373.104 370.912 368.199 371.674 363.488 373.149C369.711 374.942 376.158 375.835 382.634 375.801C387.267 375.804 391.89 375.364 396.439 374.487C390.589 372.135 384.345 370.913 378.04 370.888Z" fill="#E0E0E0"/>
<path d="M360.717 388.777C360.492 383.935 355.046 379.305 349.398 379.601C334.136 380.312 316.85 385.048 317.11 390.814C317.371 396.58 335.036 399.682 350.262 398.972C355.946 398.711 360.942 393.632 360.717 388.777Z" fill="#E6E6E6"/>
<path d="M378.003 323.019C356.348 325.292 335.852 338.553 336.563 345.029C338.398 362.517 357.52 375.695 383.272 372.995C409.024 370.296 425.008 353.436 423.172 335.948C422.462 329.483 399.658 320.745 378.003 323.019Z" fill="#E6E6E6"/>
<path d="M378.429 327.043C360.254 328.95 343.051 340.067 343.619 345.502C345.158 360.184 361.202 371.242 382.821 368.969C404.441 366.696 417.832 352.57 416.293 337.889C415.725 332.454 396.639 325.137 378.429 327.043Z" fill="#F0F0F0"/>
<path d="M363.669 362.724C368.969 362.168 372.663 355.976 371.92 348.893C371.177 341.811 366.278 336.521 360.978 337.077C355.678 337.633 351.983 343.825 352.726 350.907C353.47 357.989 358.369 363.28 363.669 362.724Z" fill="#E6E6E6"/>
<path d="M370.213 349.102C370.674 353.506 368.377 357.39 365.074 357.709C361.771 358.029 358.728 354.761 358.266 350.357C357.804 345.952 360.101 342.069 363.405 341.749C366.708 341.429 369.751 344.697 370.213 349.102Z" fill="#F5F5F5"/>
<path d="M408.539 345.088C409.285 352.192 405.591 358.373 400.251 358.917C394.911 359.462 390.056 354.181 389.311 347.077C388.565 339.973 392.259 333.805 397.599 333.248C402.938 332.692 407.805 337.984 408.539 345.088Z" fill="#E6E6E6"/>
<path d="M391.027 346.911C391.489 351.327 394.579 354.619 397.835 354.264C401.091 353.909 403.435 350.072 402.973 345.668C402.512 341.263 399.421 337.96 396.165 338.315C392.909 338.67 390.565 342.507 391.027 346.911Z" fill="#F5F5F5"/>
<path d="M476.216 394.094C474.854 390.151 469.112 387.795 464.53 389.358C452.11 393.656 439.109 401.636 440.731 406.325C442.353 411.013 457.674 409.296 470.106 404.999C474.7 403.436 477.577 398.037 476.216 394.094Z" fill="#F5F5F5"/>
<path d="M484.079 384.811C500.43 384.811 516.793 395.052 516.793 406.123C516.793 436.078 503.532 470.366 484.079 470.366C464.626 470.366 451.365 436.03 451.365 406.123C451.365 395.052 467.681 384.811 484.079 384.811Z" fill="#F5F5F5"/>
<path d="M484.079 384.8C488.341 384.818 492.576 385.476 496.641 386.753C491.288 388.293 485.742 389.059 480.172 389.027C476.197 389.013 472.232 388.617 468.332 387.843C473.344 385.85 478.686 384.818 484.079 384.8Z" fill="#F5F5F5"/>
<path d="M494.192 395.858C495.743 391.986 501.473 389.808 506.032 391.631C518.215 396.545 530.896 405.318 529.049 409.912C527.202 414.506 511.975 412.019 499.792 407.094C495.234 405.271 492.629 399.73 494.192 395.858Z" fill="#F5F5F5"/>
<path d="M480.88 344.046C499.54 342.554 518.969 350.534 519.419 356.111C520.603 371.195 506.537 385.356 484.326 387.132C462.114 388.908 445.964 377.174 444.756 362.102C444.306 356.525 462.208 345.549 480.88 344.046Z" fill="#F5F5F5"/>
<path d="M111.049 399.8C112.304 396.154 117.608 393.975 121.859 395.443C133.355 399.422 145.373 406.798 143.881 411.143C142.389 415.489 128.193 413.89 116.649 409.959C112.482 408.444 109.782 403.447 111.049 399.8Z" fill="#F5F5F5"/>
<path d="M103.779 391.264C88.6471 391.264 73.5156 400.736 73.5156 410.989C73.5156 438.695 85.77 470.426 103.779 470.426C121.787 470.426 134.042 438.695 134.042 410.989C134.042 400.736 118.91 391.264 103.779 391.264Z" fill="#F5F5F5"/>
<path d="M103.779 391.264C99.8354 391.279 95.9162 391.885 92.1523 393.063C97.1044 394.493 102.236 395.203 107.39 395.171C111.078 395.17 114.756 394.821 118.378 394.129C113.736 392.262 108.783 391.29 103.779 391.264Z" fill="#F5F5F5"/>
<path d="M94.4235 401.435C92.979 397.883 87.6747 395.835 83.507 397.516C72.2354 402.074 60.5019 410.185 62.195 414.435C63.8882 418.686 77.9896 416.377 89.2613 411.83C93.4526 410.208 95.9035 405.011 94.4235 401.435Z" fill="#F5F5F5"/>
<path d="M106.737 353.506C89.4626 352.121 71.5014 359.509 71.087 364.659C69.9622 378.619 82.998 391.714 103.54 393.359C124.083 395.005 139.06 384.148 140.162 370.2C140.564 365.038 124 354.891 106.737 353.506Z" fill="#F5F5F5"/>
<path d="M139.808 162.917C144.094 160.798 146.675 159.365 146.675 159.365L147.409 153.291L142.306 149.929C142.306 149.929 139.548 150.982 135.202 152.877C125.209 157.21 106.786 165.901 93.632 176.557C92.1994 177.741 90.8023 178.925 89.5117 180.109C91.264 179.896 93.0637 179.612 94.8989 179.268C111.451 176.131 130.028 167.736 139.808 162.917Z" fill="#E0E0E0"/>
<path d="M149.41 155.305L162.896 178.345C162.896 178.345 140.897 215.677 115.654 225.765C132.716 207.78 147.267 177.54 147.267 177.54L137.014 161.047L149.41 155.305Z" fill="#E6E6E6"/>
<path d="M148.212 153.73L142.482 127.682C142.482 127.682 101.018 115.132 75.5977 124.864C100.343 126.498 131.542 138.823 131.542 138.823L135.212 157.898L148.212 153.73Z" fill="#E6E6E6"/>
<path d="M134.184 160.301C132.707 157.325 132.47 153.885 133.524 150.734C134.578 147.583 136.837 144.977 139.808 143.488L160.705 133.069C162.183 132.337 163.891 132.22 165.455 132.744C167.02 133.267 168.313 134.389 169.052 135.863L174.688 147.171C175.402 148.643 175.509 150.336 174.986 151.886C174.464 153.436 173.353 154.719 171.894 155.459L150.996 165.866C148.027 167.344 144.593 167.588 141.444 166.546C138.295 165.503 135.685 163.259 134.184 160.301Z" fill="#F5F5F5"/>
<path d="M176.737 131.849L182.396 143.21C182.97 144.362 183.063 145.696 182.654 146.916C182.245 148.137 181.368 149.146 180.216 149.72L168.378 155.617C166.059 156.772 163.376 156.958 160.92 156.135C158.463 155.313 156.434 153.548 155.279 151.229L154.001 148.664C152.846 146.345 152.66 143.662 153.483 141.206C154.305 138.749 156.07 136.72 158.389 135.565L170.227 129.668C171.38 129.094 172.713 129.002 173.934 129.411C175.154 129.819 176.163 130.697 176.737 131.849Z" fill="#EBEBEB"/>
<path d="M162.079 132.158C164.721 127.163 169.238 123.421 174.638 121.756C180.038 120.091 185.878 120.638 190.874 123.278L225.956 141.807C228.422 143.134 230.267 145.379 231.091 148.055C231.916 150.732 231.653 153.626 230.36 156.11L220.344 175.054C219.021 177.531 216.774 179.385 214.091 180.215C211.408 181.044 208.507 180.781 206.017 179.482L170.971 160.953C165.974 158.313 162.23 153.796 160.562 148.396C158.895 142.997 159.44 137.155 162.079 132.158Z" fill="#E6E6E6"/>
<path d="M252.954 183.069C261.637 168.369 256.759 149.412 242.059 140.729C227.359 132.046 208.402 136.923 199.719 151.624C191.035 166.324 195.913 185.281 210.614 193.964C225.314 202.647 244.27 197.77 252.954 183.069Z" fill="#F5F5F5"/>
<path d="M250.457 184.26C258.022 172.847 257.024 158.868 248.227 153.036C239.431 147.205 226.166 151.73 218.601 163.143C211.035 174.556 212.034 188.535 220.83 194.366C229.627 200.197 242.891 195.673 250.457 184.26Z" fill="#EBEBEB"/>
<path d="M224.652 178.452C232.182 176.084 241.76 168.766 245.715 162.562C246.011 162.068 246.412 161.644 246.888 161.319C247.365 160.994 247.906 160.777 248.475 160.683C249.043 160.588 249.626 160.618 250.182 160.771C250.738 160.924 251.254 161.196 251.694 161.568C260.669 170.164 264.221 180.512 275.374 193.086C288.327 207.602 318.649 223.787 325.173 239.617C310.148 249.941 280.868 258.561 276.546 275.599C249.883 258.454 228.417 208.111 221.999 183.933C221.407 181.589 222.343 179.162 224.652 178.452Z" fill="#E6E6E6"/>
<path d="M245.62 487.642H312.339C313.822 487.644 315.265 487.156 316.442 486.253C317.62 485.35 318.465 484.083 318.848 482.65C319.23 481.216 319.128 479.697 318.556 478.328C317.985 476.958 316.977 475.816 315.69 475.08C297.361 464.637 272.107 451.482 261.119 451.482C239.736 451.482 245.62 487.642 245.62 487.642Z" fill="#E6E6E6"/>
<path d="M238.766 483.805C270.118 478.631 275.718 458.373 275.718 458.373L239.879 459.841L238.766 483.805Z" fill="#E0E0E0"/>
<path d="M247.752 468.248C279.139 468.248 304.584 442.803 304.584 411.416C304.584 380.029 279.139 354.584 247.752 354.584C216.364 354.584 190.92 380.029 190.92 411.416C190.92 442.803 216.364 468.248 247.752 468.248Z" fill="#F5F5F5"/>
<path d="M287.822 447.37C303.369 428.875 303.275 403.209 287.613 390.043C271.951 376.877 246.651 381.198 231.104 399.694C215.556 418.189 215.65 443.855 231.312 457.021C246.975 470.187 272.275 465.866 287.822 447.37Z" fill="#EBEBEB"/>
<path d="M249.917 487.642H183.187C181.703 487.644 180.261 487.156 179.084 486.253C177.906 485.35 177.061 484.083 176.678 482.65C176.296 481.216 176.398 479.697 176.97 478.328C177.541 476.958 178.549 475.816 179.836 475.08C198.165 464.672 223.419 451.482 234.431 451.482C255.743 451.482 249.917 487.642 249.917 487.642Z" fill="#E6E6E6"/>
<path d="M333.708 303.252C352.548 289.434 356.618 262.959 342.799 244.12C328.98 225.28 302.506 221.21 283.666 235.029C264.827 248.848 260.757 275.322 274.576 294.162C288.394 313.001 314.869 317.071 333.708 303.252Z" fill="#F5F5F5"/>
<path d="M325.636 305.724C342.428 297.402 350.844 280.169 344.433 267.232C338.023 254.295 319.213 250.553 302.421 258.875C285.628 267.196 277.213 284.429 283.623 297.366C290.034 310.303 308.844 314.045 325.636 305.724Z" fill="#EBEBEB"/>
<path d="M249.303 390.743C247.752 372.983 231.2 361.368 223.883 359.84C225.28 335.509 258.846 296.366 270.592 287.616C274.7 294.412 298.487 290.517 305.827 282.122C313.168 273.728 336.931 283.508 330.999 297.514C325.067 311.521 278.24 323.231 278.24 364.884C287.712 372.545 291.323 380.098 290.317 391.548C289.334 399.919 265.003 406.087 249.303 390.743Z" fill="#E6E6E6"/>
<path d="M301.921 541.11C428.707 541.11 531.487 535.11 531.487 527.708C531.487 520.305 428.707 514.305 301.921 514.305C175.136 514.305 72.3555 520.305 72.3555 527.708C72.3555 535.11 175.136 541.11 301.921 541.11Z" fill="#F5F5F5"/>
<path d="M196.543 390.778C202.723 388.908 210.869 393.963 213.048 401.15C218.968 420.603 220.732 444.129 213.391 446.355C206.05 448.581 194.293 427.826 188.397 408.373C186.218 401.174 190.374 392.649 196.543 390.778Z" fill="#3D0047"/>
<path d="M163.307 373.682C138.017 373.682 112.715 389.535 112.715 406.668C112.715 452.986 133.222 506.017 163.307 506.017C193.393 506.017 213.911 452.986 213.911 406.668C213.911 389.535 188.609 373.682 163.307 373.682Z" fill="#AD3AC2"/>
<path opacity="0.1" d="M163.306 373.682C156.716 373.708 150.167 374.722 143.877 376.689C152.153 379.085 160.729 380.281 169.345 380.241C175.512 380.242 181.665 379.655 187.72 378.489C179.96 375.357 171.675 373.726 163.306 373.682Z" fill="#2D0134"/>
<path d="M123.833 394.816L112.715 406.656C112.752 419.911 114.297 433.119 117.321 446.024C124.081 439.027 131.114 425.482 132.334 412.245C133.624 398.132 130.049 396.581 123.833 394.816Z" fill="#3D0047"/>
<path d="M133.789 390.435C128.142 387.321 119.132 390.305 115.508 396.888C105.705 414.648 99.0627 437.606 105.788 441.312C112.513 445.018 128.284 427.104 138.111 409.344C141.699 402.749 139.402 393.549 133.789 390.435Z" fill="#AD3AC2"/>
<path d="M170.99 489.998C148.293 489.998 132.475 450.5 132.475 415.039C132.475 402.015 151.194 389.701 170.99 389.701C190.787 389.701 209.494 402.015 209.494 415.039C209.494 450.464 193.676 489.998 170.99 489.998ZM170.99 391.075C152.247 391.075 133.848 402.915 133.848 415.039C133.848 449.848 149.098 488.624 170.99 488.624C192.882 488.624 208.12 449.848 208.12 415.039C208.12 402.95 189.721 391.075 170.99 391.075Z" fill="white"/>
<path d="M171.678 489.465L170.34 489.157C179.421 450.381 176.994 397.35 170.529 390.885L171.5 389.914C178.983 397.421 180.392 452.133 171.678 489.465Z" fill="white"/>
<path d="M151.714 467.881C152.223 468.651 152.294 469.515 151.868 469.788C151.442 470.06 150.684 469.669 150.175 468.888C149.666 468.106 149.595 467.266 150.021 466.981C150.447 466.697 151.205 467.112 151.714 467.881Z" fill="white"/>
<path d="M154.404 471.977C154.913 472.747 154.972 473.6 154.546 473.884C154.12 474.168 153.362 473.753 152.864 472.984C152.367 472.214 152.284 471.35 152.711 471.078C153.137 470.805 153.918 471.196 154.404 471.977Z" fill="white"/>
<path d="M155.919 468.046C156.428 468.828 156.499 469.68 156.073 469.953C155.647 470.225 154.889 469.834 154.38 469.053C153.871 468.271 153.8 467.431 154.226 467.146C154.652 466.862 155.41 467.277 155.919 468.046Z" fill="white"/>
<path d="M158.654 472.143C159.163 472.913 159.222 473.766 158.796 474.05C158.37 474.334 157.612 473.919 157.114 473.15C156.617 472.38 156.534 471.516 156.961 471.244C157.387 470.971 158.097 471.362 158.654 472.143Z" fill="white"/>
<path d="M157.078 476.062C157.588 476.832 157.659 477.696 157.232 477.968C156.806 478.241 156.048 477.85 155.539 477.069C155.03 476.287 154.971 475.446 155.385 475.162C155.8 474.878 156.569 475.328 157.078 476.062Z" fill="white"/>
<path d="M224.748 254.572C228.027 249.966 229.934 247.042 229.934 247.042L227.329 240.305L220.13 239.642C220.13 239.642 217.845 242.282 214.328 246.746C206.336 256.845 192.022 276.239 184.243 294.638C183.383 296.659 182.593 298.668 181.875 300.665C183.592 299.481 185.32 298.155 187.025 296.77C202.583 284.172 217.253 265.05 224.748 254.572Z" fill="#2D0134"/>
<path d="M229.828 249.989L243.467 278.405C243.467 278.405 213.867 320.236 183.143 329.625C204.999 310.113 225.115 275.931 225.115 275.931L214.673 255.483L229.828 249.989Z" fill="#3D0047"/>
<path d="M175.542 296.545C147.528 289.168 115.773 296.024 113.571 304.395C107.651 327.021 125.21 352.418 158.563 361.227C191.916 370.036 219.693 356.491 225.648 333.924C227.815 325.517 203.555 303.921 175.542 296.545Z" fill="#AD3AC2"/>
<path opacity="0.1" d="M174.169 301.742C150.667 295.562 124.027 301.304 122.18 308.325C117.219 327.328 131.936 348.64 159.843 355.993C187.75 363.346 211.146 352.062 216.142 333.071C218.037 326.05 197.731 307.934 174.169 301.742Z" fill="#2D0134"/>
<path d="M155.763 325.905C158.175 316.742 154.569 307.85 147.708 306.043C140.847 304.237 133.329 310.2 130.917 319.363C128.504 328.526 132.111 337.418 138.972 339.225C145.833 341.031 153.351 335.068 155.763 325.905Z" fill="#3D0047"/>
<path d="M121.41 325.564C119.883 325.564 118.379 324.463 117.16 322.438C115.871 320.021 115.078 317.369 114.828 314.641C114.578 311.912 114.876 309.161 115.704 306.549C116.58 304.181 117.977 302.796 119.611 302.654C121.245 302.512 122.855 303.613 124.157 305.768C125.506 308.165 126.314 310.828 126.525 313.57C126.83 316.298 126.53 319.058 125.649 321.657C124.761 324.025 123.376 325.41 121.742 325.552L121.41 325.564ZM119.895 303.779H119.717C118.533 303.885 117.48 305.034 116.769 306.94C116.004 309.39 115.731 311.967 115.964 314.523C116.198 317.079 116.934 319.564 118.131 321.835C119.185 323.575 120.499 324.499 121.6 324.404C122.701 324.309 123.838 323.149 124.548 321.243C125.36 318.804 125.631 316.219 125.341 313.665C125.171 311.095 124.431 308.596 123.175 306.348C122.192 304.702 120.996 303.779 119.895 303.779Z" fill="white"/>
<path d="M210.138 348.901C209.418 348.91 208.712 348.699 208.114 348.297C205.414 346.426 206.184 340.814 209.866 335.51C211.384 333.226 213.385 331.302 215.727 329.874C217.917 328.631 219.871 328.465 221.221 329.4C222.57 330.336 223.103 332.218 222.701 334.717C222.135 337.396 221.041 339.935 219.481 342.185C217.922 344.436 215.929 346.353 213.619 347.824C212.568 348.47 211.371 348.841 210.138 348.901ZM219.196 329.957C218.163 330.013 217.16 330.331 216.283 330.88C214.095 332.227 212.224 334.033 210.801 336.173C207.605 340.791 206.669 345.917 208.765 347.374C209.724 348.037 211.287 347.847 213.051 346.841C215.21 345.453 217.074 343.653 218.536 341.544C219.999 339.435 221.032 337.059 221.576 334.551C221.896 332.538 221.576 330.999 220.569 330.348C220.164 330.075 219.684 329.934 219.196 329.945V329.957Z" fill="white"/>
<path d="M153.568 325.327C152.064 331.022 147.399 334.728 143.125 333.615C138.851 332.502 136.613 326.949 138.117 321.254C139.62 315.559 144.297 311.782 148.559 312.966C152.822 314.15 155.107 319.621 153.568 325.327Z" fill="white"/>
<path d="M203.153 338.375C200.785 347.539 193.219 353.494 186.364 351.695C179.508 349.895 175.897 341.039 178.313 331.839C180.728 322.639 188.258 316.672 195.102 318.519C201.945 320.366 205.556 329.211 203.153 338.375Z" fill="#3D0047"/>
<path d="M195.958 336.497C197.459 330.8 195.214 325.27 190.946 324.146C186.677 323.023 182.001 326.73 180.501 332.428C179.001 338.125 181.245 343.655 185.514 344.779C189.782 345.903 194.458 342.195 195.958 336.497Z" fill="white"/>
<path d="M216.675 239.57L185.512 234.562C185.512 234.562 153.769 274.758 153.473 306.939C165.952 280.43 192.995 251.457 192.995 251.457L215.573 255.684L216.675 239.57Z" fill="#3D0047"/>
<path d="M213.265 258.052C210.695 255.084 209.403 251.219 209.672 247.302C209.94 243.385 211.747 239.733 214.697 237.143L235.5 219.004C236.973 217.725 238.893 217.082 240.839 217.215C242.785 217.349 244.599 218.247 245.884 219.714L255.699 230.962C256.972 232.438 257.611 234.356 257.478 236.3C257.345 238.244 256.451 240.057 254.989 241.346L234.186 259.485C231.216 262.055 227.349 263.347 223.43 263.079C219.511 262.811 215.857 261.004 213.265 258.052Z" fill="#AD3AC2"/>
<path opacity="0.1" d="M253.524 212.814L263.391 224.129C264.39 225.275 264.893 226.77 264.79 228.286C264.686 229.803 263.984 231.216 262.839 232.215L251.06 242.486C248.752 244.499 245.74 245.512 242.685 245.303C239.631 245.094 236.784 243.681 234.772 241.373L232.546 238.821C230.534 236.514 229.521 233.501 229.73 230.447C229.939 227.392 231.352 224.546 233.66 222.533L245.439 212.261C246.584 211.263 248.08 210.76 249.596 210.863C251.112 210.967 252.525 211.669 253.524 212.814Z" fill="#2D0134"/>
<path d="M235.844 232.052C233.005 226.01 232.672 219.091 234.92 212.805C237.167 206.52 241.812 201.38 247.838 198.509L290.237 178.452C293.232 177.042 296.662 176.873 299.781 177.982C302.899 179.091 305.453 181.388 306.884 184.372L317.742 207.306C319.152 210.3 319.321 213.731 318.212 216.849C317.103 219.968 314.806 222.521 311.822 223.953L269.434 244.022C263.391 246.875 256.463 247.217 250.167 244.973C243.872 242.73 238.722 238.084 235.844 232.052Z" fill="#3D0047"/>
<path opacity="0.1" d="M263.345 242.649C258.445 242.656 253.643 241.271 249.499 238.655C245.355 236.039 242.039 232.3 239.938 227.873C239.9 227.795 239.879 227.711 239.874 227.625C239.869 227.539 239.882 227.453 239.91 227.371C239.939 227.29 239.983 227.215 240.041 227.151C240.098 227.086 240.168 227.034 240.246 226.997C240.323 226.96 240.408 226.938 240.494 226.933C240.58 226.928 240.666 226.941 240.747 226.969C240.829 226.998 240.904 227.042 240.968 227.1C241.032 227.157 241.084 227.227 241.122 227.305C243.911 233.18 248.916 237.709 255.04 239.899C261.163 242.09 267.905 241.763 273.788 238.991L316.187 218.934C316.265 218.896 316.349 218.875 316.435 218.87C316.522 218.865 316.608 218.878 316.689 218.906C316.771 218.935 316.845 218.979 316.91 219.037C316.974 219.094 317.026 219.164 317.063 219.242C317.101 219.319 317.122 219.404 317.127 219.49C317.132 219.576 317.12 219.662 317.091 219.743C317.062 219.825 317.018 219.9 316.961 219.964C316.903 220.028 316.833 220.08 316.756 220.118L274.357 240.175C270.914 241.803 267.154 242.648 263.345 242.649Z" fill="white"/>
<path d="M348.68 200.204C353.447 180.589 341.41 160.823 321.795 156.056C302.18 151.289 282.414 163.326 277.647 182.941C272.88 202.556 284.917 222.322 304.532 227.089C324.147 231.856 343.913 219.819 348.68 200.204Z" fill="#AD3AC2"/>
<path opacity="0.1" d="M347.886 194.26C348.725 178.091 339.304 164.459 326.844 163.813C314.385 163.166 303.604 175.75 302.765 191.919C301.926 208.088 311.347 221.719 323.806 222.366C336.266 223.012 347.047 210.429 347.886 194.26Z" fill="#2D0134"/>
<path d="M302.217 222.426C299.896 222.401 297.604 221.905 295.48 220.97C290.296 218.642 285.969 214.75 283.107 209.84C276.619 199.184 277.637 186.693 285.381 181.98C293.124 177.268 304.692 182.087 311.18 192.743C317.668 203.399 316.65 215.89 308.907 220.614C306.887 221.825 304.572 222.452 302.217 222.426ZM292.058 180.986C289.858 180.963 287.695 181.549 285.807 182.679C278.454 187.155 277.519 199.148 283.806 209.414C286.583 214.173 290.776 217.948 295.8 220.212C300.441 222.165 304.94 222.059 308.481 219.904C315.833 215.428 316.769 203.435 310.481 193.169C305.828 185.544 298.523 180.986 292.058 180.986Z" fill="white"/>
<path d="M287.038 185.118C286.932 185.114 286.831 185.072 286.754 184.999C286.679 184.924 286.637 184.822 286.637 184.715C286.637 184.609 286.679 184.506 286.754 184.431C286.811 184.373 286.885 184.332 286.965 184.316C287.045 184.299 287.128 184.306 287.204 184.336C287.255 184.357 287.299 184.389 287.334 184.431C287.409 184.506 287.452 184.609 287.452 184.715C287.452 184.822 287.409 184.924 287.334 184.999C287.299 185.038 287.254 185.066 287.204 185.082C287.152 185.105 287.095 185.117 287.038 185.118Z" fill="white"/>
<path d="M306.491 192.613C306.46 192.57 306.437 192.52 306.424 192.468C306.412 192.416 306.41 192.362 306.419 192.309C306.428 192.256 306.447 192.205 306.476 192.16C306.505 192.114 306.542 192.075 306.586 192.045C306.673 191.982 306.781 191.956 306.887 191.972C306.993 191.987 307.089 192.043 307.154 192.127C307.186 192.171 307.209 192.22 307.221 192.272C307.234 192.324 307.236 192.379 307.227 192.432C307.218 192.484 307.199 192.535 307.17 192.581C307.141 192.626 307.104 192.665 307.06 192.696C306.993 192.75 306.909 192.78 306.823 192.779C306.759 192.779 306.695 192.764 306.638 192.735C306.58 192.706 306.53 192.664 306.491 192.613ZM304.905 190.647C304.83 190.572 304.787 190.47 304.787 190.363C304.787 190.257 304.83 190.155 304.905 190.079C304.982 190.003 305.086 189.961 305.195 189.961C305.303 189.961 305.408 190.003 305.485 190.079C305.558 190.158 305.599 190.262 305.599 190.369C305.599 190.477 305.558 190.58 305.485 190.659C305.409 190.723 305.312 190.757 305.213 190.754C305.157 190.761 305.1 190.755 305.046 190.737C304.993 190.718 304.944 190.688 304.905 190.647ZM303.105 188.8C303.029 188.723 302.987 188.619 302.987 188.51C302.987 188.402 303.029 188.298 303.105 188.22C303.181 188.145 303.283 188.103 303.389 188.103C303.496 188.103 303.598 188.145 303.673 188.22C303.749 188.298 303.792 188.402 303.792 188.51C303.792 188.619 303.749 188.723 303.673 188.8C303.596 188.881 303.489 188.928 303.377 188.931C303.326 188.928 303.275 188.915 303.228 188.893C303.181 188.87 303.14 188.839 303.105 188.8ZM301.152 187.178C301.068 187.115 301.012 187.021 300.997 186.917C300.981 186.813 301.007 186.707 301.069 186.622C301.099 186.578 301.138 186.54 301.184 186.512C301.229 186.483 301.28 186.464 301.333 186.455C301.386 186.446 301.44 186.448 301.492 186.46C301.544 186.473 301.594 186.495 301.637 186.527C301.722 186.593 301.777 186.689 301.793 186.795C301.808 186.901 301.782 187.008 301.72 187.095C301.682 187.145 301.634 187.186 301.579 187.215C301.524 187.244 301.462 187.259 301.4 187.261C301.323 187.272 301.245 187.26 301.175 187.226L301.152 187.178ZM299.044 185.805C298.951 185.75 298.883 185.662 298.854 185.558C298.825 185.454 298.838 185.343 298.89 185.248C298.945 185.155 299.033 185.087 299.137 185.059C299.241 185.03 299.352 185.043 299.447 185.094C299.537 185.151 299.604 185.24 299.632 185.343C299.661 185.446 299.649 185.556 299.6 185.651C299.565 185.714 299.514 185.768 299.451 185.805C299.389 185.842 299.318 185.863 299.245 185.864C299.186 185.873 299.125 185.869 299.068 185.852L299.044 185.805ZM296.783 184.716C296.731 184.698 296.684 184.669 296.644 184.632C296.605 184.594 296.573 184.549 296.552 184.499C296.531 184.449 296.521 184.395 296.521 184.34C296.522 184.286 296.535 184.232 296.558 184.183C296.597 184.084 296.674 184.005 296.772 183.963C296.869 183.921 296.98 183.919 297.079 183.958C297.129 183.977 297.175 184.007 297.213 184.044C297.252 184.082 297.283 184.127 297.304 184.177C297.325 184.226 297.336 184.28 297.336 184.334C297.336 184.388 297.325 184.441 297.304 184.491C297.273 184.567 297.221 184.632 297.154 184.678C297.086 184.725 297.006 184.75 296.925 184.751C296.886 184.762 296.846 184.766 296.806 184.763L296.783 184.716ZM288.98 183.768C288.964 183.716 288.959 183.661 288.966 183.607C288.972 183.553 288.99 183.501 289.018 183.454C289.046 183.407 289.083 183.367 289.128 183.335C289.172 183.304 289.223 183.282 289.276 183.271C289.327 183.257 289.381 183.253 289.434 183.259C289.487 183.266 289.538 183.283 289.584 183.309C289.63 183.336 289.671 183.371 289.703 183.413C289.736 183.456 289.76 183.504 289.773 183.555C289.787 183.607 289.791 183.662 289.784 183.715C289.776 183.769 289.758 183.82 289.731 183.867C289.703 183.913 289.666 183.953 289.623 183.985C289.579 184.017 289.53 184.04 289.477 184.053H289.371C289.293 184.053 289.217 184.03 289.152 183.988C289.087 183.946 289.036 183.886 289.004 183.816L288.98 183.768ZM294.391 183.993C294.337 183.984 294.287 183.963 294.241 183.933C294.196 183.903 294.157 183.864 294.127 183.819C294.098 183.773 294.077 183.723 294.068 183.669C294.058 183.616 294.059 183.561 294.071 183.508C294.097 183.404 294.161 183.314 294.252 183.256C294.342 183.199 294.452 183.179 294.557 183.2C294.66 183.223 294.75 183.285 294.808 183.374C294.865 183.462 294.886 183.57 294.864 183.674C294.848 183.768 294.798 183.853 294.724 183.913C294.65 183.974 294.557 184.007 294.462 184.005H294.391V183.993ZM291.514 183.33C291.514 183.224 291.556 183.121 291.632 183.046C291.707 182.97 291.81 182.928 291.916 182.928C292.024 182.928 292.128 182.97 292.205 183.045C292.283 183.12 292.328 183.222 292.331 183.33C292.328 183.438 292.283 183.541 292.205 183.616C292.128 183.691 292.024 183.733 291.916 183.733C291.821 183.728 291.731 183.69 291.662 183.625C291.593 183.56 291.548 183.472 291.537 183.378L291.514 183.33Z" fill="white"/>
<path d="M308.267 194.922C308.213 194.923 308.158 194.913 308.107 194.892C308.057 194.872 308.01 194.842 307.971 194.803C307.924 194.783 307.88 194.755 307.841 194.721C307.829 194.67 307.829 194.617 307.841 194.567C307.83 194.516 307.83 194.464 307.841 194.413C307.862 194.365 307.89 194.321 307.924 194.283L308.054 194.188C308.13 194.159 308.213 194.153 308.293 194.169C308.373 194.186 308.446 194.225 308.504 194.283C308.542 194.318 308.571 194.363 308.587 194.413C308.598 194.464 308.598 194.516 308.587 194.567C308.599 194.617 308.599 194.67 308.587 194.721C308.571 194.77 308.542 194.815 308.504 194.851C308.436 194.901 308.352 194.926 308.267 194.922Z" fill="white"/>
<path d="M326.515 211.095C328.102 201.907 325.45 187.865 321.021 180.382C320.68 179.8 320.465 179.152 320.39 178.482C320.314 177.811 320.38 177.132 320.583 176.488C320.786 175.845 321.122 175.251 321.568 174.745C322.015 174.239 322.563 173.832 323.176 173.551C335.738 167.631 356.234 166.541 375.923 169.62C398.656 173.172 438.178 190.375 449.758 206.975C435.029 222.734 403.451 240.127 402.788 260.918C386.816 235.32 361.242 219.573 330.908 216.755C330.237 216.699 329.585 216.504 328.993 216.183C328.401 215.861 327.882 215.421 327.469 214.889C327.056 214.357 326.758 213.745 326.594 213.092C326.43 212.439 326.403 211.759 326.515 211.095Z" fill="#3D0047"/>
<path d="M447.198 219.964C446.972 219.964 446.75 219.907 446.553 219.797C446.356 219.687 446.191 219.528 446.073 219.336C435.654 202.073 396.795 182.561 375.696 177.813C355.663 173.326 335.689 173.468 323.6 178.216C323.439 178.279 323.267 178.309 323.095 178.306C322.922 178.303 322.751 178.265 322.593 178.196C322.273 178.056 322.022 177.795 321.895 177.47C321.768 177.145 321.775 176.783 321.915 176.463C322.055 176.143 322.316 175.892 322.641 175.765C335.239 170.851 355.793 170.65 376.3 175.256C397.612 179.992 437.205 199.516 448.346 217.974C448.526 218.271 448.58 218.627 448.498 218.965C448.416 219.302 448.204 219.593 447.908 219.774C447.695 219.904 447.448 219.97 447.198 219.964Z" fill="#2D0134"/>
<path opacity="0.1" d="M433.726 296.178C433.574 296.177 433.426 296.124 433.31 296.027C433.193 295.929 433.114 295.794 433.086 295.645C429.333 276.618 401.414 245.36 380.813 232.182C363.42 221.053 344.452 214.28 331.31 214.647C331.224 214.651 331.138 214.636 331.058 214.606C330.977 214.575 330.904 214.528 330.842 214.469C330.78 214.409 330.731 214.337 330.697 214.258C330.664 214.179 330.647 214.094 330.647 214.008C330.645 213.923 330.66 213.838 330.692 213.758C330.723 213.678 330.77 213.606 330.829 213.544C330.888 213.483 330.959 213.433 331.038 213.399C331.116 213.365 331.2 213.347 331.286 213.345C344.689 213.037 363.917 219.81 381.523 231.105C399.816 242.815 430.233 274.439 434.365 295.432C434.382 295.516 434.383 295.602 434.367 295.686C434.35 295.771 434.318 295.851 434.27 295.922C434.223 295.994 434.162 296.055 434.091 296.103C434.02 296.151 433.94 296.184 433.856 296.201L433.726 296.178Z" fill="white"/>
<path d="M402.562 527.708H481.452C483.209 527.716 484.918 527.141 486.314 526.075C487.71 525.01 488.714 523.512 489.17 521.815C489.625 520.119 489.507 518.319 488.832 516.698C488.158 515.076 486.966 513.723 485.442 512.849C463.787 500.512 433.926 484.966 420.938 484.966C395.636 484.966 402.562 527.708 402.562 527.708Z" fill="#3D0047"/>
<path d="M394.486 523.173C431.546 517.052 438.176 493.1 438.176 493.1L395.801 494.852L394.486 523.173Z" fill="#2D0134"/>
<path d="M405.106 504.774C442.209 504.774 472.286 474.697 472.286 437.594C472.286 400.492 442.209 370.414 405.106 370.414C368.003 370.414 337.926 400.492 337.926 437.594C337.926 474.697 368.003 504.774 405.106 504.774Z" fill="#AD3AC2"/>
<path opacity="0.1" d="M452.487 480.117C470.866 458.252 470.751 427.908 452.23 412.339C433.71 396.771 403.797 401.875 385.418 423.74C367.04 445.604 367.154 475.949 385.675 491.517C404.195 507.085 434.108 501.981 452.487 480.117Z" fill="#2D0134"/>
<path d="M363.382 479.069C350.808 479.069 340.578 460.469 340.578 437.629C340.578 414.79 350.808 396.189 363.382 396.189C375.956 396.189 386.186 414.802 386.186 437.629C386.186 460.457 375.956 479.069 363.382 479.069ZM363.382 397.373C351.542 397.373 341.892 415.394 341.892 437.535C341.892 459.676 351.53 477.696 363.382 477.696C375.234 477.696 384.883 459.687 384.883 437.535C384.883 415.382 375.234 397.433 363.382 397.433V397.373Z" fill="white"/>
<path d="M363.384 402.56C363.302 402.579 363.217 402.579 363.135 402.56C363.055 402.527 362.983 402.479 362.922 402.418C362.861 402.357 362.813 402.285 362.78 402.205C362.717 402.045 362.717 401.867 362.78 401.707C362.816 401.633 362.864 401.565 362.922 401.506C362.977 401.438 363.051 401.388 363.135 401.364C363.213 401.329 363.298 401.311 363.384 401.311C363.469 401.311 363.554 401.329 363.632 401.364C363.783 401.435 363.904 401.557 363.976 401.707C364.014 401.785 364.034 401.87 364.034 401.956C364.034 402.042 364.014 402.128 363.976 402.205C363.951 402.289 363.902 402.363 363.834 402.418C363.775 402.476 363.707 402.524 363.632 402.56C363.55 402.577 363.466 402.577 363.384 402.56Z" fill="white"/>
<path d="M380.623 433.675C380.618 433.59 380.63 433.505 380.659 433.425C380.687 433.345 380.731 433.271 380.789 433.209C380.846 433.146 380.915 433.095 380.993 433.059C381.07 433.024 381.153 433.004 381.238 433.001C381.409 432.991 381.577 433.049 381.706 433.162C381.834 433.275 381.913 433.434 381.925 433.604C381.935 433.775 381.877 433.943 381.764 434.072C381.651 434.2 381.492 434.279 381.321 434.291C381.147 434.301 380.976 434.242 380.846 434.127C380.715 434.011 380.635 433.849 380.623 433.675ZM380.303 429.792C380.283 429.621 380.331 429.449 380.438 429.313C380.545 429.178 380.7 429.09 380.871 429.07C381.042 429.053 381.213 429.105 381.346 429.213C381.479 429.322 381.564 429.479 381.582 429.65C381.592 429.734 381.585 429.819 381.561 429.9C381.538 429.982 381.499 430.058 381.446 430.124C381.393 430.19 381.328 430.245 381.253 430.285C381.179 430.326 381.098 430.351 381.013 430.36H380.942C380.784 430.361 380.632 430.304 380.514 430.199C380.396 430.094 380.321 429.949 380.303 429.792ZM379.735 425.932C379.707 425.763 379.748 425.589 379.848 425.449C379.947 425.31 380.098 425.215 380.267 425.186C380.351 425.171 380.436 425.172 380.519 425.19C380.602 425.208 380.68 425.242 380.749 425.291C380.819 425.339 380.878 425.401 380.923 425.472C380.968 425.544 380.999 425.624 381.013 425.707C381.045 425.877 381.007 426.052 380.91 426.194C380.812 426.336 380.662 426.433 380.492 426.465H380.386C380.233 426.463 380.085 426.409 379.967 426.312C379.849 426.216 379.767 426.081 379.735 425.932ZM378.941 422.12C378.902 421.953 378.93 421.778 379.018 421.632C379.107 421.486 379.249 421.38 379.415 421.338C379.581 421.299 379.757 421.326 379.903 421.415C380.049 421.503 380.154 421.646 380.196 421.812C380.233 421.979 380.205 422.155 380.117 422.302C380.029 422.449 379.888 422.558 379.723 422.605H379.569C379.425 422.607 379.285 422.56 379.171 422.471C379.057 422.383 378.976 422.259 378.941 422.12ZM377.864 418.39C377.838 418.308 377.829 418.222 377.836 418.137C377.844 418.052 377.868 417.969 377.908 417.893C377.947 417.817 378.001 417.75 378.067 417.695C378.133 417.64 378.209 417.599 378.29 417.573C378.454 417.521 378.631 417.535 378.784 417.612C378.937 417.69 379.053 417.825 379.107 417.987C379.16 418.151 379.145 418.328 379.068 418.481C378.99 418.634 378.855 418.75 378.693 418.804C378.626 418.815 378.558 418.815 378.491 418.804C378.357 418.809 378.224 418.771 378.112 418.697C377.999 418.623 377.913 418.515 377.864 418.39ZM376.514 414.755C376.447 414.596 376.445 414.418 376.51 414.258C376.574 414.098 376.699 413.97 376.858 413.903C377.016 413.835 377.195 413.834 377.355 413.898C377.514 413.963 377.642 414.088 377.71 414.246C377.777 414.405 377.779 414.583 377.714 414.743C377.65 414.903 377.525 415.031 377.367 415.098C377.281 415.116 377.192 415.116 377.106 415.098C376.985 415.103 376.865 415.073 376.76 415.013C376.656 414.952 376.57 414.863 376.514 414.755ZM374.809 411.286C374.73 411.134 374.712 410.958 374.758 410.793C374.804 410.628 374.912 410.487 375.058 410.398C375.207 410.317 375.383 410.297 375.547 410.344C375.71 410.39 375.849 410.499 375.934 410.647C376.02 410.796 376.043 410.973 375.999 411.14C375.955 411.306 375.846 411.448 375.697 411.535C375.6 411.59 375.49 411.618 375.378 411.618C375.26 411.62 375.144 411.59 375.042 411.532C374.94 411.473 374.855 411.388 374.797 411.286H374.809ZM372.702 408.077C372.597 407.941 372.55 407.768 372.573 407.597C372.595 407.426 372.684 407.271 372.82 407.166C372.887 407.114 372.963 407.076 373.045 407.054C373.126 407.032 373.211 407.026 373.295 407.037C373.378 407.048 373.459 407.076 373.532 407.118C373.605 407.161 373.669 407.217 373.72 407.284C373.825 407.421 373.871 407.593 373.849 407.764C373.827 407.935 373.738 408.09 373.602 408.196C373.491 408.284 373.352 408.33 373.211 408.326C373.111 408.328 373.011 408.307 372.921 408.264C372.83 408.221 372.751 408.157 372.69 408.077H372.702ZM370.097 405.319C370.031 405.263 369.977 405.195 369.938 405.118C369.899 405.041 369.875 404.958 369.869 404.872C369.862 404.786 369.872 404.699 369.899 404.618C369.926 404.536 369.969 404.46 370.026 404.395C370.14 404.265 370.301 404.185 370.473 404.172C370.646 404.158 370.817 404.213 370.949 404.324C371.069 404.448 371.137 404.613 371.137 404.786C371.137 404.958 371.069 405.124 370.949 405.248C370.889 405.317 370.815 405.373 370.731 405.412C370.647 405.451 370.556 405.472 370.464 405.473C370.325 405.459 370.194 405.405 370.085 405.319H370.097ZM366.959 403.318C366.801 403.25 366.676 403.122 366.612 402.962C366.547 402.803 366.549 402.624 366.616 402.465C366.684 402.307 366.812 402.182 366.971 402.117C367.131 402.053 367.31 402.055 367.468 402.122C367.627 402.19 367.752 402.317 367.816 402.477C367.881 402.637 367.879 402.816 367.812 402.974C367.762 403.092 367.678 403.193 367.57 403.263C367.462 403.332 367.336 403.368 367.208 403.365C367.119 403.368 367.03 403.352 366.947 403.318H366.959Z" fill="white"/>
<path d="M381.38 438.245C381.297 438.257 381.214 438.257 381.131 438.245C381.052 438.212 380.979 438.164 380.918 438.103C380.857 438.045 380.812 437.971 380.788 437.89C380.749 437.813 380.728 437.728 380.729 437.642C380.731 437.556 380.751 437.471 380.788 437.393C380.815 437.317 380.86 437.248 380.918 437.192C380.981 437.134 381.053 437.086 381.131 437.05C381.209 437.014 381.294 436.996 381.38 436.996C381.465 436.996 381.55 437.014 381.628 437.05C381.708 437.083 381.78 437.131 381.841 437.192C381.899 437.251 381.947 437.319 381.984 437.393C382.047 437.553 382.047 437.731 381.984 437.89C381.95 437.97 381.902 438.042 381.841 438.103C381.711 438.208 381.546 438.259 381.38 438.245Z" fill="white"/>
<path d="M407.664 527.708H328.774C327.021 527.708 325.317 527.128 323.927 526.059C322.537 524.99 321.539 523.492 321.088 521.798C320.637 520.104 320.758 518.308 321.433 516.689C322.108 515.071 323.299 513.721 324.82 512.849C346.487 500.512 376.347 484.966 389.336 484.966C414.614 484.966 407.664 527.708 407.664 527.708Z" fill="#3D0047"/>
<path d="M487.596 225.41C486.209 221.957 484.463 218.659 482.387 215.571L483.476 214.837C485.6 218.002 487.389 221.378 488.816 224.913L487.596 225.41Z" fill="#AD3AC2"/>
<path d="M478.337 210.302C471.771 202.738 463.201 197.185 453.615 194.282L453.994 193.027C463.818 196.001 472.601 201.689 479.332 209.438L478.337 210.302Z" fill="#AD3AC2"/>
<path d="M484.371 264.401C494.939 238.874 482.813 209.614 457.287 199.046C431.761 188.478 402.5 200.604 391.932 226.13C381.364 251.656 393.49 280.917 419.016 291.485C444.543 302.053 473.803 289.927 484.371 264.401Z" fill="#AD3AC2"/>
<path opacity="0.1" d="M467.081 283.139C484.339 269.248 489.652 247.205 478.946 233.905C468.241 220.604 445.572 221.083 428.314 234.974C411.055 248.865 405.743 270.908 416.448 284.208C427.153 297.509 449.822 297.03 467.081 283.139Z" fill="#2D0134"/>
<path d="M409.571 268.199C407.914 268.197 406.267 267.954 404.681 267.477C398.891 265.713 394.404 260.965 392.047 254.098C389.711 246.684 389.74 238.727 392.13 231.33C397.079 214.99 410.755 204.63 422.63 208.23C434.506 211.829 440.13 228.038 435.181 244.377C433.052 251.842 428.659 258.461 422.606 263.321C418.918 266.34 414.335 268.055 409.571 268.199ZM417.764 208.632C407.724 208.632 397.352 217.986 393.208 231.649C390.886 238.822 390.852 246.539 393.113 253.731C395.351 260.255 399.578 264.754 404.953 266.4C410.328 268.045 416.391 266.648 421.872 262.469C427.744 257.738 432.001 251.301 434.056 244.046C438.792 228.31 433.535 212.729 422.216 209.307C420.772 208.87 419.273 208.643 417.764 208.632Z" fill="white"/>
<path d="M421.364 212.978C421.289 212.978 421.215 212.964 421.146 212.935C421.077 212.907 421.014 212.865 420.961 212.812C420.861 212.707 420.806 212.567 420.807 212.421C420.796 212.351 420.796 212.279 420.807 212.208C420.84 212.145 420.88 212.085 420.926 212.031C420.98 211.978 421.044 211.938 421.115 211.912C421.217 211.872 421.327 211.862 421.434 211.883C421.542 211.904 421.64 211.955 421.719 212.031C421.769 212.082 421.809 212.142 421.837 212.208C421.849 212.279 421.849 212.351 421.837 212.421C421.841 212.494 421.829 212.566 421.803 212.633C421.776 212.701 421.735 212.762 421.683 212.812C421.63 212.863 421.57 212.907 421.506 212.942C421.46 212.959 421.412 212.971 421.364 212.978Z" fill="white"/>
<path d="M431.464 240.139C431.391 240.125 431.323 240.096 431.262 240.055C431.2 240.014 431.148 239.96 431.109 239.898C431.069 239.836 431.042 239.767 431.03 239.694C431.017 239.622 431.02 239.547 431.037 239.476C431.069 239.334 431.154 239.209 431.276 239.13C431.398 239.05 431.546 239.021 431.689 239.049C431.761 239.064 431.83 239.092 431.892 239.133C431.953 239.174 432.006 239.227 432.047 239.289C432.088 239.351 432.116 239.42 432.129 239.493C432.143 239.565 432.142 239.64 432.127 239.712C432.097 239.838 432.026 239.949 431.925 240.029C431.824 240.108 431.699 240.151 431.57 240.151H431.464V240.139ZM432.079 236.67C432.006 236.662 431.935 236.64 431.87 236.605C431.806 236.57 431.748 236.523 431.702 236.466C431.656 236.408 431.621 236.342 431.601 236.272C431.58 236.201 431.574 236.127 431.582 236.054C431.603 235.909 431.678 235.778 431.793 235.688C431.907 235.598 432.052 235.555 432.198 235.568C432.271 235.576 432.342 235.598 432.407 235.633C432.472 235.668 432.529 235.715 432.575 235.772C432.621 235.83 432.656 235.896 432.676 235.966C432.697 236.037 432.703 236.111 432.695 236.184C432.678 236.32 432.612 236.446 432.51 236.537C432.408 236.628 432.276 236.68 432.139 236.681H432.079V236.67ZM432.364 233.118C432.216 233.118 432.074 233.059 431.97 232.955C431.866 232.85 431.807 232.709 431.807 232.561C431.809 232.488 431.824 232.416 431.854 232.349C431.883 232.282 431.926 232.222 431.978 232.171C432.031 232.12 432.093 232.081 432.161 232.054C432.23 232.028 432.302 232.015 432.375 232.016C432.449 232.016 432.522 232.031 432.589 232.06C432.657 232.089 432.718 232.131 432.769 232.184C432.82 232.237 432.86 232.3 432.886 232.369C432.911 232.438 432.923 232.511 432.92 232.585C432.917 232.73 432.857 232.869 432.753 232.971C432.649 233.072 432.509 233.129 432.364 233.129V233.118ZM431.677 229.104C431.667 228.959 431.713 228.815 431.805 228.703C431.898 228.59 432.03 228.518 432.174 228.5C432.247 228.493 432.321 228.502 432.391 228.524C432.461 228.546 432.526 228.582 432.582 228.629C432.638 228.676 432.684 228.734 432.718 228.799C432.752 228.865 432.772 228.936 432.778 229.009C432.786 229.082 432.78 229.155 432.759 229.225C432.738 229.295 432.703 229.36 432.657 229.416C432.611 229.473 432.554 229.519 432.489 229.553C432.424 229.587 432.353 229.607 432.281 229.613C432.14 229.627 432 229.587 431.888 229.501C431.775 229.415 431.7 229.29 431.677 229.151V229.104ZM431.156 225.694C431.138 225.622 431.136 225.548 431.148 225.475C431.16 225.403 431.187 225.333 431.227 225.271C431.267 225.209 431.319 225.156 431.38 225.115C431.441 225.073 431.51 225.045 431.582 225.031C431.654 225.014 431.728 225.011 431.801 225.023C431.873 225.035 431.943 225.062 432.005 225.102C432.067 225.142 432.12 225.194 432.161 225.255C432.203 225.316 432.231 225.385 432.245 225.457C432.261 225.529 432.262 225.603 432.249 225.675C432.236 225.747 432.209 225.815 432.17 225.877C432.13 225.939 432.079 225.992 432.018 226.034C431.958 226.075 431.89 226.105 431.819 226.12H431.7C431.581 226.124 431.464 226.089 431.366 226.021C431.267 225.953 431.194 225.855 431.156 225.741V225.694ZM430.209 222.391C430.182 222.322 430.169 222.249 430.171 222.176C430.172 222.102 430.188 222.03 430.218 221.963C430.248 221.896 430.291 221.835 430.344 221.785C430.397 221.734 430.46 221.694 430.528 221.668C430.668 221.618 430.822 221.625 430.957 221.687C431.092 221.749 431.197 221.861 431.251 222C431.3 222.138 431.293 222.29 431.231 222.423C431.169 222.556 431.057 222.659 430.919 222.71C430.856 222.722 430.792 222.722 430.73 222.71C430.626 222.721 430.521 222.701 430.428 222.652C430.336 222.604 430.259 222.529 430.209 222.438V222.391ZM428.764 219.288C428.726 219.225 428.701 219.154 428.69 219.081C428.68 219.008 428.684 218.933 428.703 218.861C428.722 218.79 428.755 218.722 428.8 218.664C428.845 218.605 428.901 218.556 428.965 218.519C429.029 218.481 429.099 218.457 429.172 218.448C429.245 218.438 429.319 218.444 429.39 218.464C429.461 218.483 429.527 218.517 429.584 218.564C429.641 218.61 429.689 218.667 429.723 218.732C429.796 218.859 429.816 219.01 429.779 219.152C429.741 219.294 429.649 219.416 429.522 219.49C429.439 219.537 429.345 219.561 429.25 219.561C429.156 219.569 429.062 219.553 428.977 219.514C428.891 219.474 428.818 219.413 428.764 219.336V219.288ZM426.775 216.53C426.723 216.479 426.681 216.418 426.653 216.351C426.624 216.284 426.61 216.212 426.61 216.139C426.61 216.066 426.624 215.994 426.653 215.927C426.681 215.86 426.723 215.799 426.775 215.748C426.827 215.696 426.889 215.654 426.957 215.625C427.025 215.597 427.098 215.582 427.172 215.582C427.246 215.582 427.319 215.597 427.387 215.625C427.455 215.654 427.517 215.696 427.568 215.748C427.672 215.854 427.73 215.997 427.73 216.145C427.73 216.293 427.672 216.435 427.568 216.542C427.467 216.632 427.337 216.683 427.201 216.684C427.127 216.695 427.051 216.692 426.977 216.673C426.904 216.655 426.835 216.622 426.775 216.577V216.53ZM424.229 214.327C424.168 214.288 424.115 214.237 424.073 214.176C424.032 214.116 424.002 214.049 423.987 213.977C423.972 213.906 423.971 213.832 423.984 213.76C423.997 213.688 424.024 213.619 424.064 213.558C424.103 213.496 424.155 213.443 424.215 213.402C424.276 213.36 424.344 213.332 424.416 213.317C424.488 213.303 424.562 213.303 424.633 213.318C424.705 213.333 424.773 213.362 424.833 213.404C424.953 213.488 425.036 213.615 425.064 213.758C425.093 213.901 425.065 214.05 424.987 214.174C424.934 214.25 424.863 214.312 424.781 214.356C424.698 214.399 424.607 214.422 424.514 214.422C424.416 214.431 424.319 214.414 424.229 214.375V214.327Z" fill="white"/>
<path d="M430.705 243.573C430.633 243.575 430.561 243.563 430.493 243.537C430.426 243.51 430.365 243.47 430.314 243.419C430.26 243.363 430.216 243.299 430.184 243.229C430.17 243.159 430.17 243.087 430.184 243.016C430.173 242.946 430.173 242.874 430.184 242.803C430.217 242.737 430.261 242.676 430.314 242.625C430.364 242.573 430.424 242.532 430.492 242.507C430.593 242.467 430.704 242.456 430.811 242.477C430.918 242.498 431.017 242.55 431.096 242.625C431.2 242.729 431.26 242.869 431.261 243.016C431.262 243.091 431.247 243.165 431.219 243.234C431.19 243.303 431.148 243.366 431.096 243.419C431.046 243.471 430.985 243.512 430.918 243.537C430.849 243.56 430.777 243.572 430.705 243.573Z" fill="white"/>
<path d="M406.941 413.157C405.105 392.188 385.534 378.43 376.879 376.619C378.548 347.848 387.594 289.429 398.901 276.263C405.378 283.059 431.84 272.498 438.175 260.871C444.509 249.244 474.429 254.537 471.149 272.237C467.869 289.938 444.841 321.409 441.123 382.586C452.264 391.644 456.598 400.559 455.39 414.104C454.265 424.014 425.506 431.284 406.941 413.157Z" fill="#3D0047"/>
<path opacity="0.1" d="M402.242 390.767C402.106 390.761 401.976 390.712 401.869 390.628C401.762 390.544 401.685 390.428 401.647 390.298C401.609 390.167 401.613 390.028 401.658 389.9C401.703 389.772 401.788 389.661 401.899 389.583C414.651 381.78 433.867 381.52 438.307 381.887C438.48 381.901 438.64 381.983 438.752 382.115C438.864 382.247 438.919 382.419 438.905 382.591C438.891 382.764 438.808 382.924 438.676 383.036C438.544 383.148 438.373 383.203 438.2 383.189C433.843 382.834 415.029 383.083 402.586 390.696C402.481 390.753 402.361 390.778 402.242 390.767Z" fill="white"/>
<path d="M444.003 424.416H443.743C443.402 424.345 443.102 424.142 442.91 423.852C442.717 423.562 442.646 423.207 442.713 422.865C445.614 408.728 439.871 392.981 428.422 383.651C428.258 383.523 428.129 383.356 428.044 383.166C427.96 382.977 427.923 382.769 427.936 382.562C430.068 347.492 439.374 323.362 447.591 302.121C453.771 286.101 459.111 272.272 460.331 256.726C460.344 256.555 460.391 256.388 460.468 256.235C460.546 256.082 460.653 255.946 460.783 255.835C460.914 255.723 461.065 255.638 461.228 255.585C461.391 255.532 461.563 255.511 461.734 255.524C461.905 255.538 462.071 255.584 462.224 255.662C462.377 255.74 462.514 255.847 462.625 255.977C462.737 256.107 462.822 256.258 462.875 256.421C462.928 256.584 462.949 256.756 462.935 256.927C461.692 272.852 456.293 286.859 450.03 303.103C441.943 324.06 432.779 347.799 430.589 382.1C442.429 392.069 448.349 408.598 445.282 423.433C445.208 423.716 445.043 423.966 444.811 424.144C444.58 424.322 444.295 424.418 444.003 424.416Z" fill="#2D0134"/>
<path d="M222.772 261.024C220.096 261.024 216.745 258.988 214.283 255.59C210.967 251.031 210.482 245.715 213.193 243.75C214.543 242.767 216.437 242.743 218.521 243.655C220.767 244.727 222.7 246.357 224.133 248.391C227.437 252.949 227.922 258.254 225.211 260.231C224.506 260.754 223.65 261.033 222.772 261.024ZM215.668 243.655C214.923 243.632 214.192 243.852 213.584 244.282C211.216 246.035 211.713 250.937 214.768 255.199C217.823 259.461 222.357 261.498 224.773 259.745C227.188 257.993 226.643 253.091 223.589 248.817C222.234 246.864 220.394 245.297 218.249 244.271C217.443 243.879 216.564 243.661 215.668 243.631V243.655Z" fill="white"/>
</svg>
