<svg width="18" height="17" viewBox="0 0 18 17" fill="none" xmlns="http://www.w3.org/2000/svg">
<path d="M8.53834 0.55723C8.70914 0.146584 9.29086 0.146583 9.46166 0.55723L11.5278 5.52471C11.5998 5.69783 11.7626 5.81611 11.9495 5.83109L17.3123 6.26103C17.7556 6.29657 17.9354 6.84982 17.5976 7.13916L13.5117 10.6392C13.3693 10.7611 13.3071 10.9525 13.3506 11.1349L14.5989 16.3681C14.7021 16.8007 14.2315 17.1426 13.8519 16.9108L9.26063 14.1065C9.10062 14.0087 8.89938 14.0087 8.73937 14.1065L4.14806 16.9108C3.76851 17.1426 3.29788 16.8007 3.40108 16.3681L4.64939 11.1349C4.69289 10.9525 4.6307 10.7611 4.48831 10.6392L0.402413 7.13916C0.0646446 6.84982 0.244408 6.29657 0.687735 6.26103L6.05054 5.83109C6.23744 5.81611 6.40024 5.69783 6.47225 5.52471L8.53834 0.55723Z" fill="#FEC84B"/>
</svg>
